<?xml version="1.0" encoding="UTF-8"?>
<!DOCTYPE svg PUBLIC "-//W3C//DTD SVG 1.0//EN" "http://www.w3.org/TR/2001/REC-SVG-20010904/DTD/svg10.dtd">
<!-- Creator: CorelDRAW 2020 (64-Bit) -->
<svg xmlns="http://www.w3.org/2000/svg" xml:space="preserve" width="15.0908mm" height="24.6944mm" version="1.0" style="shape-rendering:geometricPrecision; text-rendering:geometricPrecision; image-rendering:optimizeQuality; fill-rule:evenodd; clip-rule:evenodd"
viewBox="0 0 35 58"
 xmlns:xlink="http://www.w3.org/1999/xlink"
 xmlns:xodm="http://www.corel.com/coreldraw/odm/2003">
 <defs>
  <style type="text/css">
   <![CDATA[
    .fil0 {fill:white}
   ]]>
  </style>
 </defs>
 <g id="Слой_x0020_1">
  <metadata id="CorelCorpID_0Corel-Layer"/>
  <path class="fil0" d="M20 29c0,0 -6,6 -7,7l-11 11c-1,1 -1,1 -2,2 0,1 -1,2 -1,3 0,4 3,7 7,6 2,0 3,-2 4,-3 1,-1 2,-2 4,-4l18 -18c1,-1 2,-2 2,-5 0,-2 -1,-4 -2,-5l-11 -11c-2,-2 -5,-5 -7,-7 -1,-1 -2,-2 -4,-4 -1,-1 -2,-2 -4,-3 -6,-1 -11,6 -6,11l11 11c1,1 7,7 7,7z"/>
 </g>
</svg>
