<?xml version="1.0" encoding="UTF-8"?>
<!DOCTYPE svg PUBLIC "-//W3C//DTD SVG 1.0//EN" "http://www.w3.org/TR/2001/REC-SVG-20010904/DTD/svg10.dtd">
<!-- Creator: CorelDRAW 2020 (64-Bit) -->
<svg xmlns="http://www.w3.org/2000/svg" xml:space="preserve" width="205.842mm" height="212.862mm" version="1.0" style="shape-rendering:geometricPrecision; text-rendering:geometricPrecision; image-rendering:optimizeQuality; fill-rule:evenodd; clip-rule:evenodd"
viewBox="0 0 11373 11761"
 xmlns:xlink="http://www.w3.org/1999/xlink"
 xmlns:xodm="http://www.corel.com/coreldraw/odm/2003">
 <defs>
  <style type="text/css">
   <![CDATA[
    .fil0 {fill:#3030D1;fill-opacity:0.101961}
   ]]>
  </style>
 </defs>
 <g id="Содержимое_x0020_PowerClip">
  <metadata id="CorelCorpID_0Corel-Layer"/>
  <path class="fil0" d="M179 11761c697,-171 1594,-563 2288,-813 500,-180 575,69 1059,256 1268,492 2669,510 3947,113 2154,-669 3836,-2791 3898,-5371 22,-939 -171,-1846 -494,-2610 -1766,-4177 -7371,-4322 -9764,-1058 -1193,1628 -1494,3973 -577,6066 287,656 533,708 449,1053 -177,733 -662,1616 -807,2364zm5507 -7196c726,0 1315,589 1315,1316 0,727 -589,1316 -1315,1316 -726,0 -1315,-589 -1315,-1316 0,-727 589,-1316 1315,-1316z"/>
 </g>
</svg>
