<?xml version="1.0" encoding="UTF-8"?>
<!DOCTYPE svg PUBLIC "-//W3C//DTD SVG 1.0//EN" "http://www.w3.org/TR/2001/REC-SVG-20010904/DTD/svg10.dtd">
<!-- Creator: CorelDRAW 2020 (64-Bit) -->
<svg xmlns="http://www.w3.org/2000/svg" xml:space="preserve" width="22.2298mm" height="19.15mm" version="1.0" style="shape-rendering:geometricPrecision; text-rendering:geometricPrecision; image-rendering:optimizeQuality; fill-rule:evenodd; clip-rule:evenodd"
viewBox="0 0 1213 1045"
 xmlns:xlink="http://www.w3.org/1999/xlink"
 xmlns:xodm="http://www.corel.com/coreldraw/odm/2003">
 <defs>
  <style type="text/css">
   <![CDATA[
    .fil0 {fill:white}
   ]]>
  </style>
 </defs>
 <g id="Слой_x0020_1">
  <metadata id="CorelCorpID_0Corel-Layer"/>
  <path class="fil0" d="M756 575c1,58 -3,88 -32,124 -45,55 -189,55 -235,2 -31,-36 -34,-65 -34,-125l-452 -172c-1,104 -1,208 0,312 2,360 -33,329 140,329l933 0c50,0 111,11 131,-27 11,-21 7,-555 6,-621l-456 180zm-181 -67c-52,7 -48,59 -45,109 4,52 59,51 107,46 48,-5 48,-62 42,-109 -6,-52 -56,-53 -105,-46zm-142 -382l-62 0c12,27 50,49 91,54 43,5 101,2 145,2 89,0 202,14 237,-55l-63 -1c-6,-2 2,-34 -70,-34 -41,0 -227,-5 -253,6 -21,9 -19,20 -26,28zm-74 -1c-25,3 -230,1 -274,1 -52,0 -82,0 -82,57 0,45 -2,94 0,138l464 176c18,-21 25,-37 51,-51 41,-22 130,-22 171,-1 27,14 35,31 53,52l468 -184c5,-179 11,-186 -82,-187 -91,-1 -182,1 -272,0 -18,-140 -112,-124 -246,-124 -45,0 -141,-6 -176,9 -42,18 -74,55 -76,114z"/>
 </g>
</svg>
