<?xml version="1.0" encoding="UTF-8"?>
<!DOCTYPE svg PUBLIC "-//W3C//DTD SVG 1.0//EN" "http://www.w3.org/TR/2001/REC-SVG-20010904/DTD/svg10.dtd">
<!-- Creator: CorelDRAW 2020 (64-Bit) -->
<svg xmlns="http://www.w3.org/2000/svg" xml:space="preserve" width="22.4854mm" height="18.0764mm" version="1.0" style="shape-rendering:geometricPrecision; text-rendering:geometricPrecision; image-rendering:optimizeQuality; fill-rule:evenodd; clip-rule:evenodd"
viewBox="0 0 102 82"
 xmlns:xlink="http://www.w3.org/1999/xlink"
 xmlns:xodm="http://www.corel.com/coreldraw/odm/2003">
 <defs>
  <style type="text/css">
   <![CDATA[
    .fil0 {fill:white}
   ]]>
  </style>
 </defs>
 <g id="Слой_x0020_1">
  <metadata id="CorelCorpID_0Corel-Layer"/>
  <path class="fil0" d="M49 22l-18 0 0 10 -28 0c0,2 0,39 0,45l-3 0c0,1 0,4 0,5l38 0 0 -14c0,-3 2,-7 4,-8 5,-5 13,-5 18,0 1,1 4,5 4,8l0 13 38 0c0,-1 0,-4 0,-5l-2 0c0,-7 0,-15 0,-22 0,-3 0,-21 0,-22l-28 0 0 -10c0,0 -2,0 -2,0 -1,0 -2,0 -2,0 -4,0 -10,0 -14,0l0 -10 13 0c0,-1 -2,-4 -2,-5 0,-1 2,-4 2,-5 0,0 0,0 0,0l-13 0 0 -1c-1,0 -3,0 -4,0 -1,3 0,19 0,21zm1 8c0,1 0,5 0,6 2,0 2,0 4,0 2,0 3,-2 -1,-2l-2 0c0,-2 0,-5 0,-6 -1,0 -1,0 -1,1zm-43 27l11 0 0 -11 -11 0 0 11zm15 0l11 0 0 -11 -11 0 0 11zm-15 17l11 0 0 -11 -11 0 0 11zm15 0l11 0 0 -11 -11 0 0 11zm63 -17l11 0 0 -11 -11 0 0 11zm0 17l11 0 0 -11 -11 0 0 11zm-16 -17l11 0 0 -11 -11 0c0,1 0,10 0,11zm11 7c0,0 -5,0 -5,0 -2,0 -4,0 -5,0 0,1 0,10 0,11 1,0 10,0 11,0 0,0 0,-10 0,-11zm-30 -36c-4,1 -8,4 -7,9 1,4 4,8 9,7 4,-1 7,-4 7,-9 -1,-4 -4,-8 -9,-7z"/>
 </g>
</svg>
