<?xml version="1.0" encoding="UTF-8"?>
<!DOCTYPE svg PUBLIC "-//W3C//DTD SVG 1.0//EN" "http://www.w3.org/TR/2001/REC-SVG-20010904/DTD/svg10.dtd">
<!-- Creator: CorelDRAW 2020 (64-Bit) -->
<svg xmlns="http://www.w3.org/2000/svg" xml:space="preserve" width="18.1554mm" height="18.1171mm" version="1.0" style="shape-rendering:geometricPrecision; text-rendering:geometricPrecision; image-rendering:optimizeQuality; fill-rule:evenodd; clip-rule:evenodd"
viewBox="0 0 67 67"
 xmlns:xlink="http://www.w3.org/1999/xlink"
 xmlns:xodm="http://www.corel.com/coreldraw/odm/2003">
 <defs>
  <style type="text/css">
   <![CDATA[
    .fil0 {fill:white}
   ]]>
  </style>
 </defs>
 <g id="Слой_x0020_1">
  <metadata id="CorelCorpID_0Corel-Layer"/>
  <path class="fil0" d="M6 60l-6 0c-1,0 -1,0 -1,0l0 6c0,0 0,0 0,0l3 0 2 0 2 0 2 0 2 0 2 0 2 0 2 0 2 0 2 0 2 0 2 0 2 0 2 0 2 0 2 0 2 0 2 0 2 0 2 0 2 0 2 0 2 0 2 0 2 0 2 0 2 0 2 0 2 0 2 0 2 0 2 0 2 0 2 0 2 0 0 0 0 -6 0 0 -2 0 -5 0c0,-1 0,-2 0,-3 0,-1 0,-3 0,-3l-14 0 0 0 -15 0 0 0 -15 0 0 0 -9 0c0,1 0,5 0,6 0,1 0,0 0,1zm21 -58c-1,0 -1,0 -1,0 0,0 -1,0 -1,0 -1,0 -1,1 -2,1 0,0 -3,2 -4,2 -1,0 -1,1 -2,1 -1,0 -2,1 -2,1 0,0 -1,0 -1,1 0,0 -1,0 -1,1l-5 2c0,0 -1,0 -1,0 0,0 -1,0 -1,0 0,0 -1,0 -2,1 0,0 -1,1 -2,1l0 7 60 0 0 -7c0,0 -2,-1 -3,-1 0,0 -1,0 -1,0 0,0 0,0 0,0 0,0 0,0 0,0 -1,0 -1,0 -2,-1 -1,0 -1,-1 -2,-1 -1,0 -3,-1 -4,-2 0,0 -4,-2 -4,-2 -1,0 -2,-1 -2,-1 -1,0 -1,-1 -2,-1 0,0 -1,-1 -2,-1 -1,0 -1,-1 -2,-1 0,0 -2,-1 -2,-1 -2,0 -4,-2 -6,-2l-5 2zm-18 47c0,0 0,0 1,0 1,0 1,0 2,0 1,0 3,0 3,0l0 -27 -1 0 -6 0 0 27zm20 0l0 -24c0,-1 0,-3 0,-3l-6 0 0 0 0 27 7 0zm13 0l0 -27 -7 0c0,1 0,24 0,27l6 0c0,0 0,0 0,0zm13 -27l0 0 -7 0 0 27 7 0 0 -27z"/>
 </g>
</svg>
