<?xml version="1.0" encoding="UTF-8"?>
<!DOCTYPE svg PUBLIC "-//W3C//DTD SVG 1.0//EN" "http://www.w3.org/TR/2001/REC-SVG-20010904/DTD/svg10.dtd">
<!-- Creator: CorelDRAW 2020 (64-Bit) -->
<svg xmlns="http://www.w3.org/2000/svg" xml:space="preserve" width="25.4462mm" height="16.8069mm" version="1.0" style="shape-rendering:geometricPrecision; text-rendering:geometricPrecision; image-rendering:optimizeQuality; fill-rule:evenodd; clip-rule:evenodd"
viewBox="0 0 1726 1140"
 xmlns:xlink="http://www.w3.org/1999/xlink"
 xmlns:xodm="http://www.corel.com/coreldraw/odm/2003">
 <defs>
  <style type="text/css">
   <![CDATA[
    .fil0 {fill:white}
   ]]>
  </style>
 </defs>
 <g id="Слой_x0020_1">
  <metadata id="CorelCorpID_0Corel-Layer"/>
  <path class="fil0" d="M423 917c70,-82 67,-115 -3,-188 -56,-58 -112,-93 -173,-159 49,-55 80,-85 138,-130 40,-31 115,-77 86,-160 -57,-163 -265,57 -314,107 -149,153 -294,134 77,431 60,48 78,106 188,99zm1058 -347c-28,45 -114,113 -164,152 -148,114 -28,301 174,110 221,-210 352,-217 85,-433 -64,-51 -239,-264 -314,-128 -61,111 166,231 218,300zm-378 -543c-146,-75 -164,16 -207,146 -59,181 -320,854 -264,930 31,41 95,51 138,10 38,-36 143,-390 165,-456 49,-147 204,-500 167,-631z"/>
 </g>
</svg>
