<?xml version="1.0" encoding="UTF-8"?>
<!DOCTYPE svg PUBLIC "-//W3C//DTD SVG 1.0//EN" "http://www.w3.org/TR/2001/REC-SVG-20010904/DTD/svg10.dtd">
<!-- Creator: CorelDRAW 2020 (64-Bit) -->
<svg xmlns="http://www.w3.org/2000/svg" xml:space="preserve" width="110.495mm" height="110.949mm" version="1.0" style="shape-rendering:geometricPrecision; text-rendering:geometricPrecision; image-rendering:optimizeQuality; fill-rule:evenodd; clip-rule:evenodd"
viewBox="0 0 473 475"
 xmlns:xlink="http://www.w3.org/1999/xlink"
 xmlns:xodm="http://www.corel.com/coreldraw/odm/2003">
 <defs>
  <style type="text/css">
   <![CDATA[
    .fil0 {fill:white}
   ]]>
  </style>
 </defs>
 <g id="Слой_x0020_1">
  <metadata id="CorelCorpID_0Corel-Layer"/>
  <path class="fil0" d="M356 291c-7,-5 -54,-33 -64,-25 -22,17 -9,50 -73,4 -10,-7 -45,-43 -40,-54 6,-17 26,-14 14,-42 -4,-8 -15,-40 -20,-44 -9,-7 -30,-7 -45,15 -47,69 72,190 157,204 34,5 75,-12 70,-56zm-356 184l6 0c3,-2 1,-1 6,-3 2,-1 6,-1 8,-2 6,-1 10,-3 16,-4 15,-4 84,-23 90,-22 5,1 20,9 26,11 113,43 227,-2 286,-95 82,-130 17,-312 -143,-353 -10,-3 -23,-3 -31,-7l-52 0c-12,6 -33,4 -72,21 -59,27 -109,81 -129,151 -15,56 -9,110 11,159 13,30 14,12 -2,70 -6,24 -15,50 -20,74zm42 -241c0,37 9,67 24,95 12,23 12,14 4,41 -4,15 -10,33 -13,48 52,-10 61,-25 88,-11 128,69 287,-22 287,-174 0,-102 -87,-193 -189,-193l-12 0c-103,0 -190,90 -190,193z"/>
 </g>
</svg>
