<?xml version="1.0" encoding="UTF-8"?>
<!DOCTYPE svg PUBLIC "-//W3C//DTD SVG 1.0//EN" "http://www.w3.org/TR/2001/REC-SVG-20010904/DTD/svg10.dtd">
<!-- Creator: CorelDRAW 2020 (64-Bit) -->
<svg xmlns="http://www.w3.org/2000/svg" xml:space="preserve" width="113.787mm" height="92.933mm" version="1.0" style="shape-rendering:geometricPrecision; text-rendering:geometricPrecision; image-rendering:optimizeQuality; fill-rule:evenodd; clip-rule:evenodd"
viewBox="0 0 448 366"
 xmlns:xlink="http://www.w3.org/1999/xlink"
 xmlns:xodm="http://www.corel.com/coreldraw/odm/2003">
 <defs>
  <style type="text/css">
   <![CDATA[
    .fil0 {fill:#FEFFFF}
   ]]>
  </style>
 </defs>
 <g id="Слой_x0020_1">
  <metadata id="CorelCorpID_0Corel-Layer"/>
  <path class="fil0" d="M220 113c-40,-2 -80,-16 -110,-32 -17,-9 -49,-31 -62,-45l-17 -18c-6,5 -11,24 -13,30 -2,13 -1,26 2,39 10,33 32,45 35,53 -21,-2 -27,-7 -39,-11 -1,24 8,48 21,61 17,18 24,20 52,30 -12,5 -26,3 -39,2 3,18 20,36 30,44 17,14 29,15 54,20 -36,29 -73,43 -133,39 0,0 1,0 1,1 0,0 1,1 1,1 0,0 1,0 1,1 12,9 45,22 59,27 73,24 159,10 219,-28 67,-44 124,-117 123,-235 4,-2 9,-7 13,-10 11,-10 25,-22 33,-36 -16,4 -32,13 -51,12 4,-4 13,-10 23,-20 5,-5 14,-19 16,-30 -17,5 -39,19 -58,22 -45,-45 -118,-36 -149,20 -12,22 -11,38 -9,65z"/>
 </g>
</svg>
