<?xml version="1.0" encoding="UTF-8"?>
<!DOCTYPE svg PUBLIC "-//W3C//DTD SVG 1.0//EN" "http://www.w3.org/TR/2001/REC-SVG-20010904/DTD/svg10.dtd">
<!-- Creator: CorelDRAW 2020 (64-Bit) -->
<svg xmlns="http://www.w3.org/2000/svg" xml:space="preserve" width="131.233mm" height="81.4207mm" version="1.0" style="shape-rendering:geometricPrecision; text-rendering:geometricPrecision; image-rendering:optimizeQuality; fill-rule:evenodd; clip-rule:evenodd"
viewBox="0 0 773 480"
 xmlns:xlink="http://www.w3.org/1999/xlink"
 xmlns:xodm="http://www.corel.com/coreldraw/odm/2003">
 <defs>
  <style type="text/css">
   <![CDATA[
    .fil0 {fill:#FFFFFD}
   ]]>
  </style>
 </defs>
 <g id="Слой_x0020_1">
  <metadata id="CorelCorpID_0Corel-Layer"/>
  <g id="_2242170349056">
   <path class="fil0" d="M467 202l-227 0 0 91 129 1c-12,109 -229,139 -271,-15 -33,-120 86,-223 199,-176 18,7 26,17 41,22l59 -67c-32,-30 -91,-57 -149,-59 -259,-7 -347,340 -111,456 136,67 351,-11 329,-254z"/>
   <path class="fil0" d="M515 258l96 2 1 95 62 0 -1 -85c1,-17 0,-5 5,-9l94 0 0 -65 -97 0 0 -95 -65 -1 0 5 0 90 -96 2 0 62z"/>
  </g>
 </g>
</svg>
