<?xml version="1.0" encoding="UTF-8"?>
<!DOCTYPE svg PUBLIC "-//W3C//DTD SVG 1.0//EN" "http://www.w3.org/TR/2001/REC-SVG-20010904/DTD/svg10.dtd">
<!-- Creator: CorelDRAW 2020 (64-Bit) -->
<svg xmlns="http://www.w3.org/2000/svg" xml:space="preserve" width="88.1364mm" height="101.441mm" version="1.0" style="shape-rendering:geometricPrecision; text-rendering:geometricPrecision; image-rendering:optimizeQuality; fill-rule:evenodd; clip-rule:evenodd"
viewBox="0 0 390 449"
 xmlns:xlink="http://www.w3.org/1999/xlink"
 xmlns:xodm="http://www.corel.com/coreldraw/odm/2003">
 <defs>
  <style type="text/css">
   <![CDATA[
    .fil0 {fill:white}
   ]]>
  </style>
 </defs>
 <g id="Слой_x0020_1">
  <metadata id="CorelCorpID_0Corel-Layer"/>
  <path class="fil0" d="M126 449l25 0c22,-8 37,-1 75,-30 18,-13 36,-36 46,-62 15,-41 9,-153 9,-205 25,9 39,32 109,34l0 -75c-64,-5 -108,-45 -112,-111l-73 0c-3,75 0,186 0,267 0,27 3,61 -10,81 -27,40 -91,37 -112,-9 -16,-36 4,-99 80,-86l1 -79c-3,-5 0,-2 -5,-4 0,0 -8,-1 -8,-1 -70,-5 -139,47 -149,120 -8,61 24,120 71,143 9,4 15,8 25,11 9,3 22,4 29,7z"/>
 </g>
</svg>
