<?xml version="1.0" encoding="UTF-8"?>
<!DOCTYPE svg PUBLIC "-//W3C//DTD SVG 1.0//EN" "http://www.w3.org/TR/2001/REC-SVG-20010904/DTD/svg10.dtd">
<!-- Creator: CorelDRAW 2020 (64-Bit) -->
<svg xmlns="http://www.w3.org/2000/svg" xml:space="preserve" width="112.437mm" height="112.444mm" version="1.0" style="shape-rendering:geometricPrecision; text-rendering:geometricPrecision; image-rendering:optimizeQuality; fill-rule:evenodd; clip-rule:evenodd"
viewBox="0 0 375 375"
 xmlns:xlink="http://www.w3.org/1999/xlink"
 xmlns:xodm="http://www.corel.com/coreldraw/odm/2003">
 <defs>
  <style type="text/css">
   <![CDATA[
    .fil0 {fill:white}
   ]]>
  </style>
 </defs>
 <g id="Слой_x0020_1">
  <metadata id="CorelCorpID_0Corel-Layer"/>
  <path class="fil0" d="M122 1c-32,2 -52,4 -75,18 -9,5 -18,14 -24,23 -7,9 -12,19 -16,32 -8,24 -7,59 -7,87 0,31 -1,63 1,93 1,31 4,53 18,75 6,9 14,18 22,24 35,25 73,22 118,22 31,0 63,0 93,-1 31,-1 53,-4 75,-18 49,-32 46,-87 47,-141 0,-31 1,-63 -1,-93 -2,-44 -8,-73 -41,-99 -9,-7 -19,-12 -32,-16 -24,-7 -59,-7 -87,-7 -31,0 -63,-1 -93,1zm163 64c-12,1 -22,11 -20,25 1,11 11,21 25,20 11,-1 21,-11 20,-25 -1,-12 -12,-21 -24,-20zm-107 27c-14,2 -26,5 -37,11 -32,18 -54,53 -50,94 6,54 53,92 105,86 49,-5 92,-49 86,-105 -5,-52 -52,-92 -105,-86zm2 34c-32,4 -59,33 -55,70 4,32 33,59 70,54 32,-4 59,-33 54,-70 -4,-32 -33,-58 -69,-54zm-50 -91c-26,1 -44,0 -64,12 -15,9 -26,25 -29,48 -4,21 -3,51 -3,74 0,25 0,51 0,77 1,33 2,65 32,83 26,16 70,13 102,13 25,0 51,0 77,0 32,-1 66,-2 83,-32 16,-27 13,-69 13,-102 0,-26 0,-51 0,-77 -1,-33 -2,-64 -32,-83 -8,-5 -18,-8 -28,-10 -21,-4 -51,-3 -74,-3 -25,0 -52,-1 -76,0z"/>
 </g>
</svg>
