<?xml version="1.0" encoding="UTF-8"?>
<!DOCTYPE svg PUBLIC "-//W3C//DTD SVG 1.0//EN" "http://www.w3.org/TR/2001/REC-SVG-20010904/DTD/svg10.dtd">
<!-- Creator: CorelDRAW 2020 (64-Bit) -->
<svg xmlns="http://www.w3.org/2000/svg" xml:space="preserve" width="22.4854mm" height="20.5358mm" version="1.0" style="shape-rendering:geometricPrecision; text-rendering:geometricPrecision; image-rendering:optimizeQuality; fill-rule:evenodd; clip-rule:evenodd"
viewBox="0 0 121 111"
 xmlns:xlink="http://www.w3.org/1999/xlink"
 xmlns:xodm="http://www.corel.com/coreldraw/odm/2003">
 <defs>
  <style type="text/css">
   <![CDATA[
    .fil0 {fill:white}
   ]]>
  </style>
 </defs>
 <g id="Слой_x0020_1">
  <metadata id="CorelCorpID_0Corel-Layer"/>
  <g id="_1794690830064">
   <path class="fil0" d="M60 0c-2,0 -53,27 -57,29 -1,1 -3,1 -3,2 -1,2 2,6 3,7 2,2 5,2 8,2l51 0c17,0 34,0 50,0 5,0 6,0 9,-6 1,-4 -1,-4 -7,-7 -7,-4 -20,-11 -27,-14 -4,-2 -9,-5 -13,-7 -3,-1 -11,-6 -14,-6zm-1 14c-11,3 -7,20 5,17 4,-1 7,-6 6,-11 -1,-4 -6,-8 -11,-6z"/>
   <path class="fil0" d="M104 95c0,-6 0,-12 0,-18l0 -23c0,-2 0,-3 1,-4 1,-1 2,-1 3,-1 1,-1 1,-3 0,-3 -2,-1 -15,-1 -18,-1 -1,0 -3,0 -4,1 -1,1 -1,2 0,3 1,1 3,0 3,1 1,1 1,20 1,22 0,6 0,12 0,18 0,5 -1,4 5,4 3,0 7,0 9,0z"/>
   <path class="fil0" d="M17 95l14 0c0,-2 0,-14 0,-16 0,-2 0,-27 1,-28 1,-1 2,-1 3,-1 2,-1 2,-4 -2,-4l-17 0c-1,0 -2,0 -3,1 -2,3 3,3 4,4 1,1 1,2 1,4l0 25c0,5 0,11 0,16z"/>
   <path class="fil0" d="M54 95l13 0c0,-5 0,-11 0,-17l0 -25c0,-5 0,-3 3,-5 2,-1 1,-4 -2,-4l-17 0c-3,0 -4,3 -2,4 4,2 3,-2 3,13 0,6 0,11 0,17 0,5 0,12 0,17z"/>
   <path class="fil0" d="M2 106c-3,0 -3,3 -1,4 1,1 21,1 23,1l63 0c5,0 11,0 16,0 5,0 11,0 16,0 3,0 2,-3 1,-4 -1,-1 -5,0 -7,0l-95 0c-4,0 -12,0 -16,0z"/>
   <path class="fil0" d="M10 98c-1,0 -2,1 -2,2 -1,4 5,3 7,3 4,0 9,0 14,0 7,0 80,0 84,0 2,0 3,-3 1,-4 -1,-1 -5,-1 -6,-1 -23,0 -47,0 -70,0 -5,0 -24,0 -28,0z"/>
  </g>
 </g>
</svg>
