<?xml version="1.0" encoding="UTF-8"?>
<!DOCTYPE svg PUBLIC "-//W3C//DTD SVG 1.0//EN" "http://www.w3.org/TR/2001/REC-SVG-20010904/DTD/svg10.dtd">
<!-- Creator: CorelDRAW 2020 (64-Bit) -->
<svg xmlns="http://www.w3.org/2000/svg" xml:space="preserve" width="25.5932mm" height="19.73mm" version="1.0" style="shape-rendering:geometricPrecision; text-rendering:geometricPrecision; image-rendering:optimizeQuality; fill-rule:evenodd; clip-rule:evenodd"
viewBox="0 0 554 427"
 xmlns:xlink="http://www.w3.org/1999/xlink"
 xmlns:xodm="http://www.corel.com/coreldraw/odm/2003">
 <defs>
  <style type="text/css">
   <![CDATA[
    .fil0 {fill:white}
   ]]>
  </style>
 </defs>
 <g id="Слой_x0020_1">
  <metadata id="CorelCorpID_0Corel-Layer"/>
  <path class="fil0" d="M509 164c0,40 2,84 0,123 -1,36 -15,8 -15,49 0,21 0,42 0,64l56 0c0,-21 0,-42 0,-63 0,-45 -14,-16 -14,-52 -1,-43 0,-88 0,-131l-28 11zm-509 -53c11,9 272,125 277,125 5,0 267,-116 277,-125 -12,-8 -270,-111 -277,-111 -8,0 -268,104 -277,111zm453 79c-26,10 -167,77 -176,77 -3,0 -161,-70 -174,-77 -4,20 -2,76 -2,100 0,36 -6,64 15,87 65,67 252,66 318,4 23,-22 19,-45 19,-83 0,-36 0,-71 0,-107z"/>
 </g>
</svg>
