<?xml version="1.0" encoding="UTF-8"?>
<!DOCTYPE svg PUBLIC "-//W3C//DTD SVG 1.0//EN" "http://www.w3.org/TR/2001/REC-SVG-20010904/DTD/svg10.dtd">
<!-- Creator: CorelDRAW 2020 (64-Bit) -->
<svg xmlns="http://www.w3.org/2000/svg" xml:space="preserve" width="63.5mm" height="29.9862mm" version="1.0" style="shape-rendering:geometricPrecision; text-rendering:geometricPrecision; image-rendering:optimizeQuality; fill-rule:evenodd; clip-rule:evenodd"
viewBox="0 0 833 393"
 xmlns:xlink="http://www.w3.org/1999/xlink"
 xmlns:xodm="http://www.corel.com/coreldraw/odm/2003">
 <defs>
  <style type="text/css">
   <![CDATA[
    .fil0 {fill:#1F1F1F}
    .fil1 {fill:#3030D1}
   ]]>
  </style>
 </defs>
 <g id="Слой_x0020_1">
  <metadata id="CorelCorpID_0Corel-Layer"/>
  <g id="_2278548732048">
   <path class="fil0" d="M716 72c-84,8 -131,105 -74,175 24,30 69,45 108,35 8,-2 11,-5 10,5 -1,14 -10,28 -23,33 -14,6 -15,3 -24,13 -6,7 -10,16 -9,29 3,19 20,34 43,30 21,-4 38,-15 49,-26 34,-32 36,-55 36,-114 0,-25 0,-50 0,-75 -1,-60 -54,-112 -116,-106zm1 72c-47,11 -31,80 15,70 47,-10 30,-80 -15,-70z"/>
   <path class="fil0" d="M153 76c-3,-17 4,-42 -5,-58 -16,-28 -67,-26 -67,23 0,21 0,42 0,63 0,36 -4,87 9,117 12,27 36,51 68,60 115,34 191,-117 95,-188 -12,-9 -27,-16 -44,-19 -29,-6 -48,4 -55,3zm32 67c-48,7 -37,77 9,71 17,-2 33,-20 30,-41 -2,-17 -19,-33 -40,-30z"/>
   <path class="fil1" d="M399 288c13,-3 29,-10 42,-15 9,-3 11,1 19,5 23,9 49,9 73,2 40,-12 71,-51 72,-99 0,-17 -3,-34 -9,-48 -32,-77 -136,-80 -180,-19 -22,30 -27,73 -11,112 5,12 10,13 8,19 -3,13 -12,30 -15,43zm101 -132c13,0 24,11 24,24 0,13 -11,24 -24,24 -13,0 -24,-11 -24,-24 0,-13 11,-24 24,-24z"/>
   <path class="fil0" d="M337 1c-30,7 -29,29 -29,61l0 178c0,16 1,26 10,35 21,20 49,11 58,-10 5,-11 3,-28 3,-41l0 -178c0,-15 -2,-26 -10,-35 -6,-7 -20,-13 -33,-10z"/>
   <path class="fil0" d="M26 217c-46,13 -25,77 17,66 16,-4 30,-21 24,-42 -4,-15 -21,-30 -41,-24z"/>
  </g>
 </g>
</svg>
