<?xml version="1.0" encoding="UTF-8"?>
<!DOCTYPE svg PUBLIC "-//W3C//DTD SVG 1.0//EN" "http://www.w3.org/TR/2001/REC-SVG-20010904/DTD/svg10.dtd">
<!-- Creator: CorelDRAW 2020 (64-Bit) -->
<svg xmlns="http://www.w3.org/2000/svg" xml:space="preserve" width="99.1793mm" height="102.791mm" version="1.0" style="shape-rendering:geometricPrecision; text-rendering:geometricPrecision; image-rendering:optimizeQuality; fill-rule:evenodd; clip-rule:evenodd"
viewBox="0 0 575 596"
 xmlns:xlink="http://www.w3.org/1999/xlink"
 xmlns:xodm="http://www.corel.com/coreldraw/odm/2003">
 <defs>
  <style type="text/css">
   <![CDATA[
    .fil0 {fill:white}
   ]]>
  </style>
 </defs>
 <g id="Слой_x0020_1">
  <metadata id="CorelCorpID_0Corel-Layer"/>
  <g id="_2242226762784">
   <path class="fil0" d="M197 596l113 0 0 -200c0,-136 151,-142 151,0l0 200 113 0 0 -245c0,-149 -106,-194 -194,-160 -41,16 -47,27 -69,54l-1 -63 -112 0 -1 415z"/>
   <polygon class="fil0" points="9,596 122,596 122,180 9,180 "/>
   <path class="fil0" d="M51 2c-86,22 -53,150 32,128 29,-8 56,-40 47,-81 -7,-31 -42,-56 -78,-47z"/>
  </g>
 </g>
</svg>
