<?xml version="1.0" encoding="UTF-8"?>
<!DOCTYPE svg PUBLIC "-//W3C//DTD SVG 1.0//EN" "http://www.w3.org/TR/2001/REC-SVG-20010904/DTD/svg10.dtd">
<!-- Creator: CorelDRAW 2020 (64-Bit) -->
<svg xmlns="http://www.w3.org/2000/svg" xml:space="preserve" width="96.5506mm" height="80.7612mm" version="1.0" style="shape-rendering:geometricPrecision; text-rendering:geometricPrecision; image-rendering:optimizeQuality; fill-rule:evenodd; clip-rule:evenodd"
viewBox="0 0 649 543"
 xmlns:xlink="http://www.w3.org/1999/xlink"
 xmlns:xodm="http://www.corel.com/coreldraw/odm/2003">
 <defs>
  <style type="text/css">
   <![CDATA[
    .fil0 {fill:white}
   ]]>
  </style>
 </defs>
 <g id="Слой_x0020_1">
  <metadata id="CorelCorpID_0Corel-Layer"/>
  <path class="fil0" d="M235 509c29,3 34,-9 60,-32 17,-15 33,-32 50,-49 14,5 67,47 84,59 16,12 69,58 91,56 35,-3 38,-70 45,-103 9,-41 16,-80 26,-122 18,-78 34,-162 50,-240 11,-54 16,-95 -50,-70l-529 205c-27,10 -105,37 -35,61 37,13 75,24 113,35 38,11 27,13 54,94 10,29 25,91 40,107zm-43 -207c1,37 41,125 50,166l3 -6c1,-4 1,-3 2,-9 11,-66 -10,-81 31,-113l62 -58c8,-8 16,-11 25,-19 9,-8 11,-13 20,-20l110 -98c17,-18 35,-22 41,-46 -26,2 -72,35 -91,48 -35,22 -230,149 -251,156z"/>
 </g>
</svg>
